<svg xmlns="http://www.w3.org/2000/svg" xmlns:xlink="http://www.w3.org/1999/xlink" width="156.902" height="248.631" viewBox="0 0 156.902 248.631">
  <defs>
    <linearGradient id="linear-gradient" x1="1.679" y1="1.57" x2="0.037" y2="0.071" gradientUnits="objectBoundingBox">
      <stop offset="0" stop-color="#9318d1"/>
      <stop offset="1" stop-color="#af1faa"/>
    </linearGradient>
    <linearGradient id="linear-gradient-2" x1="0.927" y1="1.195" x2="-1.2" y2="-2.501" xlink:href="#linear-gradient"/>
    <linearGradient id="linear-gradient-3" x1="1.1" y1="-0.133" x2="0.201" y2="0.91" gradientUnits="objectBoundingBox">
      <stop offset="0"/>
      <stop offset="1" stop-color="#fff"/>
    </linearGradient>
    <linearGradient id="linear-gradient-4" x1="-0.238" y1="-0.171" x2="0.616" y2="0.789" xlink:href="#linear-gradient-3"/>
    <linearGradient id="linear-gradient-5" x1="0.013" y1="-0.201" x2="2.366" y2="3.779" xlink:href="#linear-gradient-3"/>
    <linearGradient id="linear-gradient-6" x1="-1.685" y1="-0.831" x2="1.019" y2="0.795" xlink:href="#linear-gradient-3"/>
    <linearGradient id="linear-gradient-7" x1="0.5" y1="0" x2="0.5" y2="1" xlink:href="#linear-gradient"/>
    <linearGradient id="linear-gradient-8" x1="67.34" y1="-0.133" x2="66.442" y2="0.91" xlink:href="#linear-gradient-3"/>
    <linearGradient id="linear-gradient-9" x1="225.942" y1="-0.171" x2="226.797" y2="0.789" xlink:href="#linear-gradient-3"/>
    <linearGradient id="linear-gradient-10" x1="40.099" y1="0.173" x2="41.289" y2="0.732" xlink:href="#linear-gradient-3"/>
  </defs>
  <g id="Group_9765" data-name="Group 9765" transform="translate(-129 -343.369)">
    <g id="Group_81" data-name="Group 81" transform="translate(0.161)">
      <g id="Green_Logo" data-name="Green Logo" transform="translate(-133.509 141.877)">
        <g id="Group_79" data-name="Group 79" transform="translate(277.348 201.492)">
          <g id="Group_77" data-name="Group 77">
            <path id="Path_226" data-name="Path 226" d="M397.543,201.492V235.98a121.8,121.8,0,0,1-32.905,17.451,122.035,122.035,0,0,1,.712,13.246c0,2.692-.079,5.357-.255,7.978a121.315,121.315,0,0,1,27.593,7.67,125.706,125.706,0,0,0-27.232,18.251c-1.53-.308-3.069-.572-4.626-.809a98.027,98.027,0,0,0-14.557-1.09,99.113,99.113,0,0,0-12.059.739q.924-2.586,1.706-5.251c.255-.862.5-1.724.73-2.595.027-.114.053-.22.079-.325.141-.519.273-1.038.4-1.566.273-1.108.528-2.225.756-3.342a97.744,97.744,0,0,0,1.759-12.947c.158-2.208.247-4.46.247-6.712,0-2.507-.106-4.97-.282-7.441a96.128,96.128,0,0,0-5.313-25.033,95.864,95.864,0,0,0,24.91-5.928A96.981,96.981,0,0,0,397.543,201.492Z" transform="translate(-334.21 -201.492)" fill="url(#linear-gradient)"/>
            <path id="Path_227" data-name="Path 227" d="M541.3,471.665l-21.092,14.311a97.176,97.176,0,0,0-27.8-29.308,92.462,92.462,0,0,1,27.241-10.854A123.151,123.151,0,0,1,541.3,471.665Z" transform="translate(-425.473 -342.446)" fill="url(#linear-gradient-2)"/>
            <path id="Path_228" data-name="Path 228" d="M397.65,201.5v17.909a108.8,108.8,0,0,1-59.774,27.121,94.6,94.6,0,0,0-3.482-12.317A96.951,96.951,0,0,0,397.65,201.5Z" transform="translate(-334.314 -201.495)" opacity="0.3" fill="url(#linear-gradient-3)" style="mix-blend-mode: multiply;isolation: isolate"/>
            <path id="Path_229" data-name="Path 229" d="M352.532,308.387a109.862,109.862,0,0,1-4.755,32.036c-.5-.04-1.015-.04-1.512-.04a100.3,100.3,0,0,0-12.06.737,96.49,96.49,0,0,0,5.433-26.027c.159-2.208.239-4.458.239-6.706,0-2.507-.1-4.975-.28-7.442a95.855,95.855,0,0,0-5.313-25.032,98.663,98.663,0,0,0,12.676-2.129A109.323,109.323,0,0,1,352.532,308.387Z" transform="translate(-334.206 -243.199)" opacity="0.3" fill="url(#linear-gradient-4)" style="mix-blend-mode: multiply;isolation: isolate"/>
            <path id="Path_230" data-name="Path 230" d="M346.272,401.283a109.611,109.611,0,0,1,31.929,4.723,125,125,0,0,0-12.745,9.834c-1.53-.308-3.069-.572-4.626-.809a98.023,98.023,0,0,0-14.557-1.09,99.113,99.113,0,0,0-12.059.739q.924-2.586,1.706-5.251c.255-.862.5-1.724.73-2.595.027-.114.053-.22.079-.325.141-.528.273-1.047.4-1.566.273-1.108.519-2.225.748-3.342h.008C340.669,401.379,343.44,401.283,346.272,401.283Z" transform="translate(-334.21 -316.755)" opacity="0.3" fill="url(#linear-gradient-5)" style="mix-blend-mode: multiply;isolation: isolate"/>
            <path id="Path_231" data-name="Path 231" d="M530.691,485.017l-10.484,7.125a97.176,97.176,0,0,0-27.8-29.308,92.363,92.363,0,0,1,12.736-6.333A110.031,110.031,0,0,1,530.691,485.017Z" transform="translate(-425.473 -348.611)" opacity="0.3" fill="url(#linear-gradient-6)" style="mix-blend-mode: multiply;isolation: isolate"/>
          </g>
          <g id="Group_78" data-name="Group 78" transform="translate(10.726 0.002)">
            <path id="Path_232" data-name="Path 232" d="M359.557,330.715l21.091,14.306a96.831,96.831,0,0,1,82.676-46.343,100.281,100.281,0,0,1,12.059.737,96.491,96.491,0,0,1-5.433-26.027c-.159-2.208-.239-4.458-.239-6.706,0-2.507.1-4.975.28-7.442a95.871,95.871,0,0,1,5.313-25.032A96.951,96.951,0,0,1,412.048,201.5v34.484a121.661,121.661,0,0,0,32.912,17.45,121.426,121.426,0,0,0-.717,13.252c0,2.686.08,5.352.259,7.979A122.351,122.351,0,0,0,359.557,330.715Z" transform="translate(-359.557 -201.497)" fill="url(#linear-gradient-7)"/>
            <path id="Path_233" data-name="Path 233" d="M483.624,201.5v17.909A108.8,108.8,0,0,0,543.4,246.526a94.661,94.661,0,0,1,3.482-12.317A96.951,96.951,0,0,1,483.624,201.5Z" transform="translate(-431.134 -201.497)" opacity="0.3" fill="url(#linear-gradient-8)" style="mix-blend-mode: multiply;isolation: isolate"/>
            <path id="Path_234" data-name="Path 234" d="M590.009,308.387a109.863,109.863,0,0,0,4.755,32.036c.5-.04,1.015-.04,1.512-.04a100.292,100.292,0,0,1,12.059.737,96.49,96.49,0,0,1-5.433-26.027c-.159-2.208-.239-4.458-.239-6.706,0-2.507.1-4.975.28-7.442a95.869,95.869,0,0,1,5.313-25.032,98.665,98.665,0,0,1-12.676-2.129A109.323,109.323,0,0,0,590.009,308.387Z" transform="translate(-492.509 -243.201)" opacity="0.3" fill="url(#linear-gradient-9)" style="mix-blend-mode: multiply;isolation: isolate"/>
            <path id="Path_235" data-name="Path 235" d="M384.625,453.16l10.485,7.124a96.832,96.832,0,0,1,82.676-46.343,100.294,100.294,0,0,1,12.059.737,95.2,95.2,0,0,1-3.661-13.074c-2.786-.219-5.573-.318-8.4-.318A109.513,109.513,0,0,0,384.625,453.16Z" transform="translate(-374.019 -317.759)" opacity="0.3" fill="url(#linear-gradient-10)" style="mix-blend-mode: multiply;isolation: isolate"/>
          </g>
        </g>
      </g>
      <g id="Group_83" data-name="Group 83" transform="translate(-13.309 -586.315)">
        <path id="Path_243" data-name="Path 243" d="M178.136,1116.058a.847.847,0,0,1,.268.636.915.915,0,0,1-.915.915h-3.371a10.077,10.077,0,0,1-8.495-4.655,9.254,9.254,0,0,1-.949-1.953,12.108,12.108,0,0,1-2.255,3.148A11.877,11.877,0,0,1,154,1117.61a11.774,11.774,0,0,1-8.372-3.461,12.111,12.111,0,0,1-2.579-3.851,11.865,11.865,0,0,1,0-9.087,11.861,11.861,0,0,1,2.579-3.829,11.52,11.52,0,0,1,3.84-2.59,11.856,11.856,0,0,1,12.949,2.59,13.394,13.394,0,0,1,1.63,2.032v-4.577a.872.872,0,0,1,.268-.658.945.945,0,0,1,1.295,0,.872.872,0,0,1,.268.658v12.726a7.946,7.946,0,0,0,.647,3.193,8.47,8.47,0,0,0,1.764,2.623,8.239,8.239,0,0,0,2.612,1.775,8,8,0,0,0,3.215.648h3.371A.9.9,0,0,1,178.136,1116.058Zm-20.227-1.072a10.285,10.285,0,0,0,3.192-2.143,10.065,10.065,0,0,0,2.154-3.181,9.731,9.731,0,0,0,.793-3.907v-.022a9.652,9.652,0,0,0-.793-3.9,10.1,10.1,0,0,0-2.154-3.17,10.3,10.3,0,0,0-3.192-2.144,10,10,0,0,0-7.8,0,10.329,10.329,0,0,0-3.181,2.144,10.057,10.057,0,0,0-2.154,3.181,10.025,10.025,0,0,0,0,7.814,10.058,10.058,0,0,0,2.154,3.181,10.314,10.314,0,0,0,3.181,2.143,10,10,0,0,0,7.8,0Zm-9.332-24.011a2.585,2.585,0,0,0,1.317,1.317,2.394,2.394,0,0,0,1.92,0,2.586,2.586,0,0,0,1.317-1.317,2.4,2.4,0,0,0,0-1.92,2.586,2.586,0,0,0-1.317-1.317,2.394,2.394,0,0,0-1.92,0,2.584,2.584,0,0,0-1.317,1.317,2.393,2.393,0,0,0,0,1.92Zm6.329,0a2.443,2.443,0,0,0,.525.781,2.6,2.6,0,0,0,.781.536,2.394,2.394,0,0,0,1.92,0,2.586,2.586,0,0,0,1.317-1.317,2.395,2.395,0,0,0,0-1.92,2.586,2.586,0,0,0-1.317-1.317,2.394,2.394,0,0,0-1.92,0,2.607,2.607,0,0,0-.781.536,2.494,2.494,0,0,0-.525,2.7Z" transform="translate(0 -0.178)"/>
        <path id="Path_244" data-name="Path 244" d="M360.259,1118.639a.882.882,0,0,1,.268.647.845.845,0,0,1-.268.636.9.9,0,0,1-.647.257H312.148a.9.9,0,0,1-.648-.257.845.845,0,0,1-.268-.636.914.914,0,0,1,.915-.915H344.23a3.476,3.476,0,0,0,1.418-.29,3.71,3.71,0,0,0,1.931-1.931,3.479,3.479,0,0,0,.29-1.418v-8.171a7.957,7.957,0,0,0-.647-3.193,8.494,8.494,0,0,0-1.764-2.623,8.261,8.261,0,0,0-2.612-1.775,7.952,7.952,0,0,0-3.193-.647H325.231a5.331,5.331,0,0,1-2.143-.435,5.5,5.5,0,0,1-2.914-2.9,5.253,5.253,0,0,1-.435-2.132v-1.183a.915.915,0,1,1,1.831,0v1.183a3.471,3.471,0,0,0,.29,1.417,3.679,3.679,0,0,0,1.942,1.931,3.554,3.554,0,0,0,1.429.29h14.422a9.78,9.78,0,0,1,3.851.77,10.161,10.161,0,0,1,3.248,2.2,10.019,10.019,0,0,1,2.188,3.249,9.908,9.908,0,0,1,.759,3.851v8.171a5.355,5.355,0,0,1-.368,2,5.163,5.163,0,0,1-1.038,1.641h11.319A.882.882,0,0,1,360.259,1118.639Z" transform="translate(-135.061 -2.748)"/>
        <path id="Path_245" data-name="Path 245" d="M560.471,1117.432H546.026a.9.9,0,0,1-.648-.257.845.845,0,0,1-.268-.636.914.914,0,0,1,.915-.915h14.444a3.554,3.554,0,0,0,1.429-.29,3.615,3.615,0,0,0,1.161-.793,3.893,3.893,0,0,0,.781-1.161,3.481,3.481,0,0,0,.29-1.418v-17.3a.915.915,0,1,1,1.831,0v17.3a5.25,5.25,0,0,1-.435,2.132,5.5,5.5,0,0,1-2.913,2.9A5.331,5.331,0,0,1,560.471,1117.432Zm-10.806-27.661a2.44,2.44,0,0,1,2.456-2.456,2.515,2.515,0,0,1,.971.19,2.42,2.42,0,0,1,.793.525,2.468,2.468,0,0,1,0,3.483,2.571,2.571,0,0,1-.793.536,2.387,2.387,0,0,1-.971.2,2.308,2.308,0,0,1-.96-.2,2.608,2.608,0,0,1-.782-.536,2.44,2.44,0,0,1-.714-1.741Zm6.34,0a2.457,2.457,0,1,1,4.2,1.741,2.612,2.612,0,0,1-.781.536,2.4,2.4,0,0,1-1.92,0,2.607,2.607,0,0,1-.781-.536,2.438,2.438,0,0,1-.715-1.741Z" transform="translate(-321.877)"/>
        <path id="Path_246" data-name="Path 246" d="M679.967,1117.521h-3.55a5.33,5.33,0,0,1-2.143-.435,5.5,5.5,0,0,1-2.913-2.9,5.251,5.251,0,0,1-.435-2.132v-23.709a.915.915,0,1,1,1.831,0v23.709a3.475,3.475,0,0,0,.29,1.418,3.883,3.883,0,0,0,.782,1.161,3.608,3.608,0,0,0,1.161.793,3.551,3.551,0,0,0,1.429.29h3.55a.914.914,0,0,1,.915.915.845.845,0,0,1-.268.636A.9.9,0,0,1,679.967,1117.521Z" transform="translate(-422.375 -0.09)"/>
        <path id="Path_247" data-name="Path 247" d="M737.13,1115.713a.915.915,0,0,1,.915.915.845.845,0,0,1-.268.636.9.9,0,0,1-.647.257h-26.9a.9.9,0,0,1-.647-.257.845.845,0,0,1-.268-.636.915.915,0,0,1,.915-.915h7.1a10.817,10.817,0,0,1-2.054-1.63,11.672,11.672,0,0,1-2.567-3.84,11.888,11.888,0,0,1,15.516-15.516,11.68,11.68,0,0,1,3.84,2.567,12.091,12.091,0,0,1,2.579,3.862,11.865,11.865,0,0,1,0,9.086,11.833,11.833,0,0,1-2.579,3.84,12.261,12.261,0,0,1-.982.882,9.605,9.605,0,0,1-1.072.748Zm-23.486-10.024a9.667,9.667,0,0,0,.77,3.851,10.268,10.268,0,0,0,2.1,3.159,10.077,10.077,0,0,0,3.115,2.165,9.721,9.721,0,0,0,3.817.849h.447a9.725,9.725,0,0,0,3.818-.849,10.163,10.163,0,0,0,5.235-5.325,9.991,9.991,0,0,0-.022-7.747,10.134,10.134,0,0,0-5.347-5.335,10.021,10.021,0,0,0-7.814,0,10.061,10.061,0,0,0-3.181,2.154,10.32,10.32,0,0,0-2.143,3.181A9.646,9.646,0,0,0,713.644,1105.689Zm10.024-13.328a2.461,2.461,0,0,1-1.741-4.2,2.6,2.6,0,0,1,.782-.536,2.393,2.393,0,0,1,1.92,0,2.612,2.612,0,0,1,.781.536,2.454,2.454,0,0,1-1.742,4.2Z" transform="translate(-453.038 -0.09)"/>
        <path id="Path_248" data-name="Path 248" d="M845.5,1117.521h-3.572a.9.9,0,0,1-.648-.257.845.845,0,0,1-.268-.636.915.915,0,0,1,.916-.915H845.5a3.475,3.475,0,0,0,1.418-.29,3.8,3.8,0,0,0,1.953-1.953,3.482,3.482,0,0,0,.29-1.418v-23.709a.915.915,0,1,1,1.831,0v23.709a5.25,5.25,0,0,1-.435,2.132,5.5,5.5,0,0,1-1.183,1.73,5.746,5.746,0,0,1-1.742,1.172A5.25,5.25,0,0,1,845.5,1117.521Z" transform="translate(-558.233 -0.09)"/>
        <path id="Path_249" data-name="Path 249" d="M913.706,1117.521a.915.915,0,0,1-.915-.915v-28.264a.915.915,0,1,1,1.831,0v28.264a.915.915,0,0,1-.915.915Z" transform="translate(-615.572 -0.09)"/>
      </g>
    </g>
    <text id="Alfateha" transform="translate(139 571)" font-size="39" font-family="ElMessiri-Regular, El Messiri"><tspan x="0" y="0">Alfateha</tspan></text>
  </g>
</svg>
