<svg xmlns="http://www.w3.org/2000/svg" width="98.141" height="122.06" viewBox="0 0 98.141 122.06">
  <g id="Group_81" data-name="Group 81" transform="translate(-145.177 -356.369)">
    <g id="Green_Logo" data-name="Green Logo" transform="translate(156.676 356.369)">
      <g id="Group_79" data-name="Group 79">
        <g id="Group_77" data-name="Group 77">
          <path id="Path_226" data-name="Path 226" d="M371.81,201.492v20.475a72.311,72.311,0,0,1-19.535,10.36,72.449,72.449,0,0,1,.423,7.864c0,1.6-.047,3.18-.151,4.736a72.019,72.019,0,0,1,16.381,4.553,74.627,74.627,0,0,0-16.167,10.835c-.908-.183-1.822-.34-2.747-.48a58.194,58.194,0,0,0-8.642-.647,58.842,58.842,0,0,0-7.159.439q.549-1.535,1.013-3.118c.151-.512.3-1.023.434-1.54.016-.068.032-.13.047-.193.084-.308.162-.616.235-.93.162-.658.313-1.321.449-1.984a58.021,58.021,0,0,0,1.044-7.686c.094-1.311.146-2.648.146-3.985,0-1.488-.063-2.95-.167-4.418a57.067,57.067,0,0,0-3.154-14.861,56.912,56.912,0,0,0,14.788-3.519A57.574,57.574,0,0,0,371.81,201.492Z" transform="translate(-334.211 -201.492)" fill="#fff"/>
          <path id="Path_227" data-name="Path 227" d="M521.431,461.161l-12.522,8.5a57.69,57.69,0,0,0-16.506-17.4,54.893,54.893,0,0,1,16.172-6.444A73.111,73.111,0,0,1,521.431,461.161Z" transform="translate(-452.669 -384.448)" fill="#fff"/>
          <path id="Path_228" data-name="Path 228" d="M371.947,201.5v10.632a64.589,64.589,0,0,1-35.486,16.1,56.162,56.162,0,0,0-2.067-7.312,57.556,57.556,0,0,0,37.553-19.42Z" transform="translate(-334.347 -201.496)" fill="#fff" opacity="0.3" style="mix-blend-mode: multiply;isolation: isolate"/>
          <path id="Path_229" data-name="Path 229" d="M345.086,294.327a65.222,65.222,0,0,1-2.823,19.019c-.3-.024-.6-.024-.9-.024a59.546,59.546,0,0,0-7.159.437,57.282,57.282,0,0,0,3.226-15.451c.094-1.311.142-2.646.142-3.981,0-1.488-.06-2.953-.166-4.418a56.9,56.9,0,0,0-3.154-14.861,58.574,58.574,0,0,0,7.525-1.264A64.9,64.9,0,0,1,345.086,294.327Z" transform="translate(-334.206 -255.627)" fill="#fff" opacity="0.3" style="mix-blend-mode: multiply;isolation: isolate"/>
          <path id="Path_230" data-name="Path 230" d="M341.372,401.283a65.073,65.073,0,0,1,18.955,2.8,74.218,74.218,0,0,0-7.566,5.838c-.908-.183-1.822-.34-2.747-.48a58.19,58.19,0,0,0-8.642-.647,58.842,58.842,0,0,0-7.159.439q.549-1.535,1.013-3.118c.151-.512.3-1.023.434-1.54.016-.068.032-.13.047-.193.084-.313.162-.621.235-.93.162-.658.308-1.321.444-1.984h.005C338.046,401.34,339.691,401.283,341.372,401.283Z" transform="translate(-334.211 -351.102)" fill="#fff" opacity="0.3" style="mix-blend-mode: multiply;isolation: isolate"/>
          <path id="Path_231" data-name="Path 231" d="M515.134,473.43l-6.224,4.23a57.689,57.689,0,0,0-16.506-17.4,54.828,54.828,0,0,1,7.561-3.76A65.322,65.322,0,0,1,515.134,473.43Z" transform="translate(-452.669 -392.451)" fill="#fff" opacity="0.3" style="mix-blend-mode: multiply;isolation: isolate"/>
        </g>
        <g id="Group_78" data-name="Group 78" transform="translate(6.367 0.001)">
          <path id="Path_232" data-name="Path 232" d="M359.557,278.209l12.521,8.493a57.485,57.485,0,0,1,49.082-27.512,59.529,59.529,0,0,1,7.159.437,57.283,57.283,0,0,1-3.226-15.451c-.094-1.311-.142-2.646-.142-3.981,0-1.488.06-2.953.166-4.418a56.915,56.915,0,0,1,3.154-14.861,57.556,57.556,0,0,1-37.553-19.42v20.472a72.227,72.227,0,0,0,19.538,10.36,72.081,72.081,0,0,0-.426,7.867c0,1.595.047,3.178.153,4.737A72.636,72.636,0,0,0,359.557,278.209Z" transform="translate(-359.557 -201.497)" fill="#fff"/>
          <path id="Path_233" data-name="Path 233" d="M483.624,201.5v10.632a64.588,64.588,0,0,0,35.486,16.1,56.191,56.191,0,0,1,2.067-7.312,57.556,57.556,0,0,1-37.553-19.42Z" transform="translate(-452.462 -201.497)" fill="#fff" opacity="0.3" style="mix-blend-mode: multiply;isolation: isolate"/>
          <path id="Path_234" data-name="Path 234" d="M590.009,294.327a65.222,65.222,0,0,0,2.823,19.019c.3-.024.6-.024.9-.024a59.542,59.542,0,0,1,7.159.437,57.282,57.282,0,0,1-3.226-15.451c-.094-1.311-.142-2.646-.142-3.981,0-1.488.06-2.953.166-4.418a56.914,56.914,0,0,1,3.154-14.861,58.572,58.572,0,0,1-7.525-1.264A64.9,64.9,0,0,0,590.009,294.327Z" transform="translate(-532.127 -255.629)" fill="#fff" opacity="0.3" style="mix-blend-mode: multiply;isolation: isolate"/>
          <path id="Path_235" data-name="Path 235" d="M384.625,432.082l6.225,4.229A57.486,57.486,0,0,1,439.932,408.8a59.536,59.536,0,0,1,7.159.437,56.515,56.515,0,0,1-2.173-7.761c-1.654-.13-3.308-.189-4.986-.189A65.014,65.014,0,0,0,384.625,432.082Z" transform="translate(-378.329 -351.105)" fill="#fff" opacity="0.3" style="mix-blend-mode: multiply;isolation: isolate"/>
        </g>
      </g>
    </g>
    <g id="Group_84" data-name="Group 84" transform="translate(145.177 459.591)">
      <path id="Path_250" data-name="Path 250" d="M164.658,1105.377a.529.529,0,0,1,.168.4.572.572,0,0,1-.573.573h-2.109a6.3,6.3,0,0,1-5.313-2.911,5.793,5.793,0,0,1-.593-1.222,7.575,7.575,0,0,1-1.41,1.969,7.43,7.43,0,0,1-5.264,2.164,7.365,7.365,0,0,1-5.237-2.164,7.576,7.576,0,0,1-1.613-2.409,7.421,7.421,0,0,1,0-5.683,7.417,7.417,0,0,1,1.613-2.395,7.2,7.2,0,0,1,2.4-1.62,7.415,7.415,0,0,1,8.1,1.62,8.361,8.361,0,0,1,1.019,1.271V1092.1a.546.546,0,0,1,.168-.412.591.591,0,0,1,.81,0,.545.545,0,0,1,.168.412v7.96a4.97,4.97,0,0,0,.4,2,5.3,5.3,0,0,0,1.1,1.641,5.152,5.152,0,0,0,1.634,1.11,5,5,0,0,0,2.011.405h2.109A.565.565,0,0,1,164.658,1105.377Zm-12.652-.67a6.435,6.435,0,0,0,2-1.341,6.294,6.294,0,0,0,1.348-1.99,6.086,6.086,0,0,0,.5-2.444v-.014a6.036,6.036,0,0,0-.5-2.437A6.315,6.315,0,0,0,154,1094.5a6.438,6.438,0,0,0-2-1.341,6.257,6.257,0,0,0-4.881,0,6.457,6.457,0,0,0-1.99,1.341,6.29,6.29,0,0,0-1.348,1.99,6.271,6.271,0,0,0,0,4.888,6.289,6.289,0,0,0,1.348,1.99,6.454,6.454,0,0,0,1.99,1.341,6.254,6.254,0,0,0,4.881,0Zm-5.837-15.019a1.617,1.617,0,0,0,.824.824,1.5,1.5,0,0,0,1.2,0,1.618,1.618,0,0,0,.824-.824,1.5,1.5,0,0,0,0-1.2,1.617,1.617,0,0,0-.824-.824,1.5,1.5,0,0,0-1.2,0,1.616,1.616,0,0,0-.824.824,1.5,1.5,0,0,0,0,1.2Zm3.959,0a1.527,1.527,0,0,0,.328.489,1.629,1.629,0,0,0,.489.335,1.5,1.5,0,0,0,1.2,0,1.618,1.618,0,0,0,.824-.824,1.5,1.5,0,0,0,0-1.2,1.616,1.616,0,0,0-.824-.824,1.5,1.5,0,0,0-1.2,0,1.629,1.629,0,0,0-.489.335,1.525,1.525,0,0,0-.447,1.089A1.517,1.517,0,0,0,150.129,1089.688Z" transform="translate(-142.148 -1087.51)" fill="#fff"/>
      <path id="Path_251" data-name="Path 251" d="M341.9,1108.2a.552.552,0,0,1,.168.405.528.528,0,0,1-.168.4.563.563,0,0,1-.4.161H311.806a.563.563,0,0,1-.405-.161.528.528,0,0,1-.168-.4.572.572,0,0,1,.573-.573h20.067a2.174,2.174,0,0,0,.887-.182,2.32,2.32,0,0,0,1.208-1.208,2.176,2.176,0,0,0,.182-.887v-5.111a4.977,4.977,0,0,0-.4-2,5.314,5.314,0,0,0-1.1-1.641,5.166,5.166,0,0,0-1.634-1.11,4.976,4.976,0,0,0-2-.405h-9.021a3.333,3.333,0,0,1-1.341-.272,3.442,3.442,0,0,1-1.822-1.815,3.286,3.286,0,0,1-.272-1.333v-.74a.573.573,0,1,1,1.145,0v.74a2.172,2.172,0,0,0,.181.886,2.3,2.3,0,0,0,1.215,1.208,2.219,2.219,0,0,0,.894.182h9.021a6.117,6.117,0,0,1,2.409.482,6.358,6.358,0,0,1,2.032,1.375,6.269,6.269,0,0,1,1.369,2.032,6.2,6.2,0,0,1,.475,2.409v5.111a3.351,3.351,0,0,1-.23,1.25,3.231,3.231,0,0,1-.649,1.026h7.08A.552.552,0,0,1,341.9,1108.2Z" transform="translate(-289.951 -1090.322)" fill="#fff"/>
      <path id="Path_252" data-name="Path 252" d="M554.718,1106.153h-9.035a.563.563,0,0,1-.405-.161.528.528,0,0,1-.168-.4.572.572,0,0,1,.573-.573h9.035a2.224,2.224,0,0,0,.894-.181,2.259,2.259,0,0,0,.726-.5,2.433,2.433,0,0,0,.489-.726,2.178,2.178,0,0,0,.181-.887v-10.822a.573.573,0,1,1,1.145,0v10.822a3.283,3.283,0,0,1-.272,1.333,3.44,3.44,0,0,1-1.822,1.815A3.331,3.331,0,0,1,554.718,1106.153Zm-6.759-17.3a1.526,1.526,0,0,1,1.536-1.536,1.573,1.573,0,0,1,.607.119,1.513,1.513,0,0,1,.5.328,1.544,1.544,0,0,1,0,2.178,1.612,1.612,0,0,1-.5.335,1.5,1.5,0,0,1-.607.125,1.445,1.445,0,0,1-.6-.125,1.635,1.635,0,0,1-.489-.335,1.526,1.526,0,0,1-.447-1.089Zm3.966,0a1.539,1.539,0,0,1,2.625-1.089,1.544,1.544,0,0,1,0,2.178,1.637,1.637,0,0,1-.489.335,1.5,1.5,0,0,1-1.2,0,1.635,1.635,0,0,1-.489-.335,1.525,1.525,0,0,1-.447-1.089Z" transform="translate(-494.393 -1087.315)" fill="#fff"/>
      <path id="Path_253" data-name="Path 253" d="M676.581,1106.251h-2.22a3.333,3.333,0,0,1-1.341-.272,3.443,3.443,0,0,1-1.822-1.815,3.285,3.285,0,0,1-.272-1.333V1088a.573.573,0,1,1,1.145,0v14.83a2.173,2.173,0,0,0,.182.887,2.426,2.426,0,0,0,.489.726,2.257,2.257,0,0,0,.726.5,2.222,2.222,0,0,0,.894.182h2.22a.572.572,0,0,1,.573.573.528.528,0,0,1-.167.4A.564.564,0,0,1,676.581,1106.251Z" transform="translate(-604.371 -1087.413)" fill="#fff"/>
      <path id="Path_254" data-name="Path 254" d="M726.713,1105.12a.573.573,0,0,1,.573.573.528.528,0,0,1-.168.4.563.563,0,0,1-.4.161H709.886a.563.563,0,0,1-.4-.161.528.528,0,0,1-.168-.4.572.572,0,0,1,.573-.573h4.441a6.763,6.763,0,0,1-1.285-1.02,7.3,7.3,0,0,1-1.606-2.4,7.436,7.436,0,0,1,9.705-9.7,7.306,7.306,0,0,1,2.4,1.606,7.564,7.564,0,0,1,1.613,2.416,7.42,7.42,0,0,1,0,5.683,7.4,7.4,0,0,1-1.613,2.4,7.654,7.654,0,0,1-.614.552,6,6,0,0,1-.67.468Zm-14.69-6.27a6.048,6.048,0,0,0,.482,2.409,6.425,6.425,0,0,0,1.313,1.976,6.3,6.3,0,0,0,1.948,1.354,6.08,6.08,0,0,0,2.388.531h.279a6.082,6.082,0,0,0,2.388-.531,6.357,6.357,0,0,0,3.275-3.33,6.249,6.249,0,0,0-.014-4.846,6.338,6.338,0,0,0-3.345-3.337,6.27,6.27,0,0,0-4.888,0,6.3,6.3,0,0,0-1.99,1.347,6.453,6.453,0,0,0-1.341,1.99A6.033,6.033,0,0,0,712.022,1098.85Zm6.27-8.337a1.539,1.539,0,0,1-1.089-2.625,1.63,1.63,0,0,1,.489-.335,1.5,1.5,0,0,1,1.2,0,1.636,1.636,0,0,1,.489.335,1.538,1.538,0,0,1-.489,2.507A1.516,1.516,0,0,1,718.292,1090.513Z" transform="translate(-637.928 -1087.413)" fill="#fff"/>
      <path id="Path_255" data-name="Path 255" d="M843.815,1106.251h-2.234a.563.563,0,0,1-.405-.161.528.528,0,0,1-.168-.4.572.572,0,0,1,.573-.573h2.234a2.173,2.173,0,0,0,.887-.182,2.375,2.375,0,0,0,1.222-1.222,2.177,2.177,0,0,0,.182-.887V1088a.573.573,0,1,1,1.145,0v14.83a3.285,3.285,0,0,1-.272,1.333,3.443,3.443,0,0,1-.74,1.082,3.6,3.6,0,0,1-1.089.733A3.284,3.284,0,0,1,843.815,1106.251Z" transform="translate(-753.047 -1087.413)" fill="#fff"/>
      <path id="Path_256" data-name="Path 256" d="M913.364,1106.251a.572.572,0,0,1-.573-.572V1088a.573.573,0,1,1,1.145,0v17.679a.572.572,0,0,1-.573.572Z" transform="translate(-815.795 -1087.413)" fill="#fff"/>
    </g>
  </g>
</svg>
